<?xml version="1.0" encoding="UTF-8" standalone="no"?>
<!-- Created with Inkscape (http://www.inkscape.org/) -->

<svg
   xmlns:dc="http://purl.org/dc/elements/1.1/"
   xmlns:cc="http://creativecommons.org/ns#"
   xmlns:rdf="http://www.w3.org/1999/02/22-rdf-syntax-ns#"
   xmlns:svg="http://www.w3.org/2000/svg"
   xmlns="http://www.w3.org/2000/svg"
   xmlns:sodipodi="http://sodipodi.sourceforge.net/DTD/sodipodi-0.dtd"
   xmlns:inkscape="http://www.inkscape.org/namespaces/inkscape"
   width="96"
   height="32"
   viewBox="0 0 96 32.000001"
   id="svg5243"
   version="1.1"
   inkscape:version="0.91 r13725"
   sodipodi:docname="logo-white.svg">
  <defs
     id="defs5245" />
  <sodipodi:namedview
     id="base"
     pagecolor="#000000"
     bordercolor="#666666"
     borderopacity="1.0"
     inkscape:pageopacity="0"
     inkscape:pageshadow="2"
     inkscape:zoom="5.2158537"
     inkscape:cx="77.142857"
     inkscape:cy="25.337854"
     inkscape:document-units="px"
     inkscape:current-layer="layer1"
     showgrid="false"
     units="px"
     showguides="true"
     inkscape:window-width="1680"
     inkscape:window-height="947"
     inkscape:window-x="42"
     inkscape:window-y="38"
     inkscape:window-maximized="0" />
  <metadata
     id="metadata5248">
    <rdf:RDF>
      <cc:Work
         rdf:about="">
        <dc:format>image/svg+xml</dc:format>
        <dc:type
           rdf:resource="http://purl.org/dc/dcmitype/StillImage" />
        <dc:title></dc:title>
      </cc:Work>
    </rdf:RDF>
  </metadata>
  <g
     inkscape:label="Layer 1"
     inkscape:groupmode="layer"
     id="layer1"
     transform="translate(0,-1020.3622)">
    <rect
       style="opacity:1;fill:#00694c;fill-opacity:1;stroke:#00d299;stroke-width:2;stroke-miterlimit:4;stroke-dasharray:none;stroke-opacity:1"
       id="rect5795"
       width="30"
       height="30"
       x="1"
       y="1021.3622"
       ry="4.0789661" />
    <g
       transform="scale(0.98968827,1.0104192)"
       style="font-style:normal;font-variant:normal;font-weight:bold;font-stretch:normal;font-size:25.14385986px;line-height:125%;font-family:sans-serif;-inkscape-font-specification:'sans-serif Bold';letter-spacing:0px;word-spacing:0px;fill:#ffffff;fill-opacity:1;stroke:none;stroke-width:1px;stroke-linecap:butt;stroke-linejoin:miter;stroke-opacity:1"
       id="text5791">
      <path
         d="m 19.823748,1031.6474 -7.39092,0 -1.166341,3.3394 -4.7513059,0 6.7893329,-18.33 5.63527,0 6.789333,18.33 -4.751306,0 -1.154063,-3.3394 z m -6.212302,-3.4008 5.021406,0 -2.504564,-7.2927 -2.516842,7.2927 z"
         style=""
         id="path5854" />
      <path
         d="m 38.165997,1024.9808 q -0.577032,-0.2701 -1.154063,-0.3928 -0.564755,-0.1351 -1.141787,-0.1351 -1.694264,0 -2.61506,1.0927 -0.908518,1.0804 -0.908518,3.1061 l 0,6.3351 -4.395265,0 0,-13.7505 4.395265,0 0,2.259 q 0.847132,-1.3505 1.939809,-1.9644 1.104955,-0.6261 2.639615,-0.6261 0.220991,0 0.478813,0.024 0.257823,0.012 0.748914,0.074 l 0.01228,3.9778 z"
         style=""
         id="path5856" />
      <path
         d="m 49.731191,1032.6541 q -0.908519,1.2032 -2.001196,1.768 -1.092678,0.5647 -2.529119,0.5647 -2.516841,0 -4.161996,-1.9766 -1.645155,-1.9889 -1.645155,-5.0583 0,-3.0816 1.645155,-5.0459 1.645155,-1.9767 4.161996,-1.9767 1.436441,0 2.529119,0.5648 1.092677,0.5647 2.001196,1.7802 l 0,-2.038 4.419819,0 0,12.3632 q 0,3.3148 -2.099414,5.0582 -2.087137,1.7557 -6.064974,1.7557 -1.289114,0 -2.492287,-0.1965 -1.203173,-0.1964 -2.418623,-0.6016 l 0,-3.4253 q 1.154063,0.663 2.259018,0.9822 1.104955,0.3315 2.222187,0.3315 2.1608,0 3.167537,-0.9454 1.006737,-0.9453 1.006737,-2.9588 l 0,-0.9454 z m -2.897437,-8.5572 q -1.362778,0 -2.123969,1.0067 -0.761191,1.0067 -0.761191,2.8483 0,1.8907 0.736636,2.8729 0.736637,0.9699 2.148524,0.9699 1.375054,0 2.136246,-1.0067 0.761191,-1.0067 0.761191,-2.8361 0,-1.8416 -0.761191,-2.8483 -0.761192,-1.0067 -2.136246,-1.0067 z"
         style=""
         id="path5858" />
      <path
         d="m 58.25162,1029.6339 0,-8.3976 4.419819,0 0,1.375 q 0,1.1173 -0.01228,2.8115 -0.01228,1.682 -0.01228,2.2468 0,1.6574 0.08594,2.394 0.08594,0.7244 0.294654,1.0559 0.2701,0.4297 0.699805,0.6629 0.441982,0.2333 1.006737,0.2333 1.375054,0 2.1608,-1.0558 0.785746,-1.0559 0.785746,-2.9343 l 0,-6.7893 4.395264,0 0,13.7505 -4.395264,0 0,-1.9889 q -0.99446,1.2032 -2.111692,1.7802 -1.104954,0.5648 -2.443177,0.5648 -2.381792,0 -3.634074,-1.461 -1.240005,-1.461 -1.240005,-4.248 z"
         style=""
         id="path5860" />
      <path
         d="m 79.79824,1027.9519 -4.960019,-6.7156 4.653087,0 2.811496,4.076 2.848328,-4.076 4.653088,0 -4.96002,6.6911 5.205565,7.0594 -4.653087,0 -3.093874,-4.3461 -3.057041,4.3461 -4.653087,0 5.205564,-7.0349 z"
         style=""
         id="path5862" />
    </g>
  </g>
</svg>
