<?xml version="1.0" encoding="UTF-8" standalone="no"?>
<!-- Created with Inkscape (http://www.inkscape.org/) -->

<svg
   xmlns:dc="http://purl.org/dc/elements/1.1/"
   xmlns:cc="http://creativecommons.org/ns#"
   xmlns:rdf="http://www.w3.org/1999/02/22-rdf-syntax-ns#"
   xmlns:svg="http://www.w3.org/2000/svg"
   xmlns="http://www.w3.org/2000/svg"
   xmlns:sodipodi="http://sodipodi.sourceforge.net/DTD/sodipodi-0.dtd"
   xmlns:inkscape="http://www.inkscape.org/namespaces/inkscape"
   width="220"
   height="64"
   id="svg2985"
   version="1.1"
   inkscape:version="0.48.4 r9939"
   sodipodi:docname="logo-icon.svg">
  <defs
     id="defs2987" />
  <sodipodi:namedview
     id="base"
     pagecolor="#ffffff"
     bordercolor="#666666"
     borderopacity="1.0"
     inkscape:pageopacity="0.0"
     inkscape:pageshadow="2"
     inkscape:zoom="1.375"
     inkscape:cx="34.839504"
     inkscape:cy="32"
     inkscape:current-layer="layer1"
     showgrid="true"
     inkscape:document-units="px"
     inkscape:grid-bbox="true"
     inkscape:window-width="1366"
     inkscape:window-height="709"
     inkscape:window-x="0"
     inkscape:window-y="27"
     inkscape:window-maximized="1" />
  <metadata
     id="metadata2990">
    <rdf:RDF>
      <cc:Work
         rdf:about="">
        <dc:format>image/svg+xml</dc:format>
        <dc:type
           rdf:resource="http://purl.org/dc/dcmitype/StillImage" />
        <dc:title></dc:title>
      </cc:Work>
    </rdf:RDF>
  </metadata>
  <g
     id="layer1"
     inkscape:label="Layer 1"
     inkscape:groupmode="layer">
    <g
       id="g3021"
       transform="translate(2,3.2727275)">
      <path
         sodipodi:nodetypes="ccccc"
         inkscape:connector-curvature="0"
         id="path2993"
         d="m 3.4545455,28.727273 c 9.4488005,-5.739721 16.8807745,-15.849232 28.9090905,-16 10.35017,0.336689 19.462293,9.339707 28.909091,16 C 51.636363,35.552445 42,44.705226 32.363636,44.727272 22.346794,44.340162 13.035117,34.785897 3.4545455,28.727273 z"
         style="fill:none;stroke:#000000;stroke-width:1px;stroke-linecap:butt;stroke-linejoin:miter;stroke-opacity:1" />
      <path
         transform="matrix(0.96855349,0,0,1.0266666,73.301315,4.2739408)"
         d="m -27.999999,23.818182 c 0,7.531156 -6.47152,13.636364 -14.454545,13.636364 -7.983025,0 -14.454545,-6.105208 -14.454545,-13.636364 0,-7.531156 6.47152,-13.636364 14.454545,-13.636364 7.983025,0 14.454545,6.105208 14.454545,13.636364 z"
         sodipodi:ry="13.636364"
         sodipodi:rx="14.454545"
         sodipodi:cy="23.818182"
         sodipodi:cx="-42.454544"
         id="path2995"
         style="fill:#000000;fill-opacity:1;stroke:none"
         sodipodi:type="arc" />
      <path
         transform="matrix(0.41509435,0,0,0.43999999,49.804459,18.247273)"
         d="m -27.999999,23.818182 c 0,7.531156 -6.47152,13.636364 -14.454545,13.636364 -7.983025,0 -14.454545,-6.105208 -14.454545,-13.636364 0,-7.531156 6.47152,-13.636364 14.454545,-13.636364 7.983025,0 14.454545,6.105208 14.454545,13.636364 z"
         sodipodi:ry="13.636364"
         sodipodi:rx="14.454545"
         sodipodi:cy="23.818182"
         sodipodi:cx="-42.454544"
         id="path2995-0"
         style="fill:#ffffff;fill-opacity:1;stroke:none"
         sodipodi:type="arc" />
    </g>
    <text
       xml:space="preserve"
       style="font-size:40px;font-style:normal;font-weight:normal;line-height:125%;letter-spacing:0px;word-spacing:0px;fill:#000000;fill-opacity:1;stroke:none;font-family:Sans"
       x="73.454544"
       y="44.576"
       id="text3104"
       sodipodi:linespacing="125%"><tspan
         sodipodi:role="line"
         id="tspan3106"
         x="73.454544"
         y="44.576"
         style="font-size:48px;font-style:italic;font-variant:normal;font-stretch:normal;font-family:URW Gothic L;-inkscape-font-specification:URW Gothic L Book">Argux</tspan></text>
  </g>
</svg>
